<svg width="50" height="50" viewBox="0 0 50 50" fill="none" xmlns="http://www.w3.org/2000/svg">
<g clip-path="url(#clip0_2_61)">
<rect width="50" height="50" rx="8" fill="white"/>
<rect width="50" height="50" fill="#EFEFEF"/>
<line x1="3" y1="44.5" x2="47" y2="44.5" stroke="#222222"/>
<line x1="5.5" y1="46" x2="5.5" y2="3" stroke="#222222"/>
<path d="M6.06509 44.5C5.23176 40.3333 12.0651 29.2 46.0651 18" stroke="#222222"/>
<rect x="19" y="31" width="8" height="14" fill="#1F34A1" fill-opacity="0.2"/>
<path d="M28 27H36V44H28V27Z" fill="#1F34A1" fill-opacity="0.2"/>
<path d="M37 24H45V44H37V24Z" fill="#1F34A1" fill-opacity="0.2"/>
<line x1="18.5" y1="30" x2="18.5" y2="44" stroke="#1F34A1" stroke-opacity="0.6"/>
<line x1="27.5" y1="31" x2="27.5" y2="44" stroke="#1F34A1" stroke-opacity="0.6"/>
<line x1="36.5" y1="23" x2="36.5" y2="44" stroke="#1F34A1" stroke-opacity="0.6"/>
<line x1="45.5" y1="24" x2="45.5" y2="44" stroke="#1F34A1" stroke-opacity="0.6"/>
<line x1="19" y1="30.5" x2="28" y2="30.5" stroke="#1F34A1" stroke-opacity="0.6"/>
<line x1="27" y1="26.5" x2="36" y2="26.5" stroke="#1F34A1" stroke-opacity="0.6"/>
<line x1="37" y1="23.5" x2="46" y2="23.5" stroke="#1F34A1" stroke-opacity="0.6"/>
<path d="M10.745 13C10.7117 13 10.6833 12.99 10.66 12.97C10.64 12.9467 10.63 12.9183 10.63 12.885V10.8H10.205C10.1717 10.8 10.1433 10.79 10.12 10.77C10.1 10.7467 10.09 10.7183 10.09 10.685V10.515C10.09 10.4817 10.1 10.455 10.12 10.435C10.1433 10.4117 10.1717 10.4 10.205 10.4H10.63V10.15C10.63 9.98 10.6583 9.83167 10.715 9.705C10.7717 9.575 10.8617 9.475 10.985 9.405C11.1117 9.335 11.28 9.3 11.49 9.3H11.79C11.8233 9.3 11.85 9.31167 11.87 9.335C11.89 9.355 11.9 9.38167 11.9 9.415V9.585C11.9 9.61833 11.89 9.64667 11.87 9.67C11.85 9.69 11.8233 9.7 11.79 9.7H11.5C11.3433 9.7 11.2367 9.74167 11.18 9.825C11.1233 9.905 11.095 10.0217 11.095 10.175V10.4H11.74C11.7733 10.4 11.8 10.4117 11.82 10.435C11.84 10.455 11.85 10.4817 11.85 10.515V10.685C11.85 10.7183 11.84 10.7467 11.82 10.77C11.8 10.79 11.7733 10.8 11.74 10.8H11.095V12.885C11.095 12.9183 11.0833 12.9467 11.06 12.97C11.04 12.99 11.0133 13 10.98 13H10.745ZM13.3788 13.795C13.1622 13.795 12.9788 13.7483 12.8288 13.655C12.6788 13.565 12.5588 13.425 12.4688 13.235C12.3788 13.045 12.3122 12.8033 12.2688 12.51C12.2288 12.2133 12.2088 11.8617 12.2088 11.455C12.2088 11.0483 12.2288 10.6983 12.2688 10.405C12.3122 10.1083 12.3788 9.865 12.4688 9.675C12.5588 9.485 12.6788 9.345 12.8288 9.255C12.9788 9.165 13.1622 9.12 13.3788 9.12C13.4088 9.12 13.4355 9.13167 13.4588 9.155C13.4822 9.17833 13.4938 9.205 13.4938 9.235V9.41C13.4938 9.44 13.4822 9.46667 13.4588 9.49C13.4388 9.51333 13.4172 9.525 13.3938 9.525C13.2538 9.52833 13.1355 9.565 13.0388 9.635C12.9455 9.70167 12.8688 9.81 12.8088 9.96C12.7522 10.11 12.7105 10.3083 12.6838 10.555C12.6605 10.7983 12.6488 11.0983 12.6488 11.455C12.6488 11.8117 12.6605 12.1133 12.6838 12.36C12.7105 12.6033 12.7522 12.8017 12.8088 12.955C12.8688 13.105 12.9455 13.2133 13.0388 13.28C13.1355 13.35 13.2538 13.3867 13.3938 13.39C13.4172 13.39 13.4388 13.4017 13.4588 13.425C13.4822 13.4483 13.4938 13.475 13.4938 13.505V13.68C13.4938 13.71 13.4822 13.7367 13.4588 13.76C13.4355 13.7833 13.4088 13.795 13.3788 13.795ZM13.7266 13C13.6999 13 13.6749 12.99 13.6516 12.97C13.6316 12.95 13.6216 12.925 13.6216 12.895C13.6216 12.885 13.6232 12.8733 13.6266 12.86C13.6332 12.8433 13.6432 12.825 13.6566 12.805L14.5266 11.67L13.7116 10.595C13.6982 10.575 13.6882 10.5583 13.6816 10.545C13.6782 10.5317 13.6766 10.5183 13.6766 10.505C13.6766 10.475 13.6866 10.45 13.7066 10.43C13.7266 10.41 13.7516 10.4 13.7816 10.4H14.0366C14.0732 10.4 14.0999 10.41 14.1166 10.43C14.1366 10.4467 14.1532 10.4633 14.1666 10.48L14.8316 11.345L15.4966 10.485C15.5099 10.4683 15.5249 10.45 15.5416 10.43C15.5616 10.41 15.5899 10.4 15.6266 10.4H15.8716C15.9016 10.4 15.9266 10.41 15.9466 10.43C15.9666 10.45 15.9766 10.475 15.9766 10.505C15.9766 10.5183 15.9732 10.5317 15.9666 10.545C15.9632 10.5583 15.9549 10.575 15.9416 10.595L15.1166 11.68L15.9866 12.805C15.9999 12.825 16.0082 12.8417 16.0116 12.855C16.0182 12.8683 16.0216 12.8817 16.0216 12.895C16.0216 12.925 16.0116 12.95 15.9916 12.97C15.9716 12.99 15.9466 13 15.9166 13H15.6516C15.6182 13 15.5916 12.9917 15.5716 12.975C15.5516 12.9583 15.5349 12.9417 15.5216 12.925L14.8166 12.01L14.1116 12.925C14.0982 12.9383 14.0816 12.955 14.0616 12.975C14.0449 12.9917 14.0182 13 13.9816 13H13.7266ZM16.2702 13.795C16.2402 13.795 16.2135 13.7833 16.1902 13.76C16.1668 13.7367 16.1552 13.71 16.1552 13.68V13.505C16.1552 13.475 16.1652 13.4483 16.1852 13.425C16.2085 13.4017 16.2335 13.39 16.2602 13.39C16.4002 13.3867 16.5168 13.35 16.6102 13.28C16.7068 13.2133 16.7835 13.105 16.8402 12.955C16.8968 12.8017 16.9385 12.6033 16.9652 12.36C16.9918 12.1133 17.0052 11.8117 17.0052 11.455C17.0052 11.0983 16.9918 10.7983 16.9652 10.555C16.9385 10.3083 16.8968 10.11 16.8402 9.96C16.7835 9.81 16.7068 9.70167 16.6102 9.635C16.5168 9.565 16.4002 9.52833 16.2602 9.525C16.2335 9.525 16.2085 9.51333 16.1852 9.49C16.1652 9.46667 16.1552 9.44 16.1552 9.41V9.235C16.1552 9.205 16.1668 9.17833 16.1902 9.155C16.2135 9.13167 16.2402 9.12 16.2702 9.12C16.4868 9.12 16.6702 9.165 16.8202 9.255C16.9702 9.345 17.0902 9.485 17.1802 9.675C17.2702 9.865 17.3352 10.1083 17.3752 10.405C17.4185 10.6983 17.4402 11.0483 17.4402 11.455C17.4402 11.8617 17.4185 12.2133 17.3752 12.51C17.3352 12.8033 17.2702 13.045 17.1802 13.235C17.0902 13.425 16.9702 13.565 16.8202 13.655C16.6702 13.7483 16.4868 13.795 16.2702 13.795ZM19.4202 11.07C19.3869 11.07 19.3602 11.06 19.3402 11.04C19.3202 11.02 19.3102 10.9933 19.3102 10.96V10.79C19.3102 10.7567 19.3202 10.73 19.3402 10.71C19.3602 10.69 19.3869 10.68 19.4202 10.68H21.3252C21.3585 10.68 21.3852 10.69 21.4052 10.71C21.4285 10.73 21.4402 10.7567 21.4402 10.79V10.96C21.4402 10.9933 21.4285 11.02 21.4052 11.04C21.3852 11.06 21.3585 11.07 21.3252 11.07H19.4202ZM19.4202 12.32C19.3869 12.32 19.3602 12.31 19.3402 12.29C19.3202 12.27 19.3102 12.2433 19.3102 12.21V12.04C19.3102 12.0067 19.3202 11.98 19.3402 11.96C19.3602 11.94 19.3869 11.93 19.4202 11.93H21.3252C21.3585 11.93 21.3852 11.94 21.4052 11.96C21.4285 11.98 21.4402 12.0067 21.4402 12.04V12.21C21.4402 12.2433 21.4285 12.27 21.4052 12.29C21.3852 12.31 21.3585 12.32 21.3252 12.32H19.4202ZM24.2973 13.05C24.1107 13.05 23.9507 13.0267 23.8173 12.98C23.684 12.9333 23.5757 12.8767 23.4923 12.81C23.409 12.7433 23.3457 12.6767 23.3023 12.61C23.2623 12.5433 23.2407 12.49 23.2373 12.45C23.234 12.4133 23.2457 12.385 23.2723 12.365C23.299 12.345 23.3257 12.335 23.3523 12.335H23.5723C23.5923 12.335 23.6073 12.3383 23.6173 12.345C23.6307 12.3483 23.6473 12.3617 23.6673 12.385C23.7107 12.4317 23.759 12.4783 23.8123 12.525C23.8657 12.5717 23.9307 12.61 24.0073 12.64C24.0873 12.67 24.1857 12.685 24.3023 12.685C24.4723 12.685 24.6123 12.6533 24.7223 12.59C24.8323 12.5233 24.8873 12.4267 24.8873 12.3C24.8873 12.2167 24.864 12.15 24.8173 12.1C24.774 12.05 24.694 12.005 24.5773 11.965C24.464 11.925 24.3073 11.8833 24.1073 11.84C23.9073 11.7933 23.749 11.7367 23.6323 11.67C23.5157 11.6 23.4323 11.5183 23.3823 11.425C23.3323 11.3283 23.3073 11.22 23.3073 11.1C23.3073 10.9767 23.344 10.8583 23.4173 10.745C23.4907 10.6283 23.5973 10.5333 23.7373 10.46C23.8807 10.3867 24.059 10.35 24.2723 10.35C24.4457 10.35 24.594 10.3717 24.7173 10.415C24.8407 10.4583 24.9423 10.5133 25.0223 10.58C25.1023 10.6433 25.1623 10.7067 25.2023 10.77C25.2423 10.8333 25.264 10.8867 25.2673 10.93C25.2707 10.9633 25.2607 10.9917 25.2373 11.015C25.214 11.035 25.1873 11.045 25.1573 11.045H24.9473C24.924 11.045 24.904 11.04 24.8873 11.03C24.874 11.02 24.8607 11.0083 24.8473 10.995C24.814 10.9517 24.774 10.9083 24.7273 10.865C24.684 10.8217 24.6257 10.7867 24.5523 10.76C24.4823 10.73 24.389 10.715 24.2723 10.715C24.1057 10.715 23.9807 10.75 23.8973 10.82C23.814 10.89 23.7723 10.9783 23.7723 11.085C23.7723 11.1483 23.7907 11.205 23.8273 11.255C23.864 11.305 23.934 11.35 24.0373 11.39C24.1407 11.43 24.294 11.4733 24.4973 11.52C24.7173 11.5633 24.8907 11.6217 25.0173 11.695C25.144 11.7683 25.234 11.8533 25.2873 11.95C25.3407 12.0467 25.3673 12.1583 25.3673 12.285C25.3673 12.425 25.3257 12.5533 25.2423 12.67C25.1623 12.7867 25.0423 12.88 24.8823 12.95C24.7257 13.0167 24.5307 13.05 24.2973 13.05ZM27.8262 13.95C27.7895 13.95 27.7612 13.9383 27.7412 13.915C27.7212 13.895 27.7112 13.8683 27.7112 13.835V12.675C27.6278 12.7817 27.5195 12.8717 27.3862 12.945C27.2562 13.015 27.0945 13.05 26.9012 13.05C26.7178 13.05 26.5595 13.0183 26.4262 12.955C26.2928 12.8883 26.1828 12.8017 26.0962 12.695C26.0128 12.585 25.9495 12.46 25.9062 12.32C25.8662 12.1767 25.8428 12.0267 25.8362 11.87C25.8328 11.8167 25.8312 11.76 25.8312 11.7C25.8312 11.64 25.8328 11.5833 25.8362 11.53C25.8428 11.37 25.8662 11.22 25.9062 11.08C25.9495 10.94 26.0128 10.815 26.0962 10.705C26.1828 10.595 26.2928 10.5083 26.4262 10.445C26.5595 10.3817 26.7178 10.35 26.9012 10.35C27.1012 10.35 27.2678 10.3867 27.4012 10.46C27.5345 10.5333 27.6412 10.625 27.7212 10.735V10.515C27.7212 10.4817 27.7312 10.455 27.7512 10.435C27.7745 10.4117 27.8028 10.4 27.8362 10.4H28.0662C28.0995 10.4 28.1262 10.4117 28.1462 10.435C28.1695 10.455 28.1812 10.4817 28.1812 10.515V13.835C28.1812 13.8683 28.1695 13.895 28.1462 13.915C28.1262 13.9383 28.0995 13.95 28.0662 13.95H27.8262ZM27.0062 12.645C27.1662 12.645 27.2962 12.6083 27.3962 12.535C27.4995 12.4617 27.5762 12.3683 27.6262 12.255C27.6795 12.1417 27.7078 12.0267 27.7112 11.91C27.7145 11.8533 27.7162 11.7883 27.7162 11.715C27.7162 11.6417 27.7145 11.5783 27.7112 11.525C27.7078 11.4017 27.6812 11.2817 27.6312 11.165C27.5812 11.045 27.5045 10.9467 27.4012 10.87C27.3012 10.7933 27.1695 10.755 27.0062 10.755C26.8362 10.755 26.7012 10.7933 26.6012 10.87C26.5012 10.9433 26.4295 11.0417 26.3862 11.165C26.3428 11.285 26.3178 11.415 26.3112 11.555C26.3078 11.6517 26.3078 11.7483 26.3112 11.845C26.3178 11.985 26.3428 12.1167 26.3862 12.24C26.4295 12.36 26.5012 12.4583 26.6012 12.535C26.7012 12.6083 26.8362 12.645 27.0062 12.645ZM29.0397 13C29.0064 13 28.978 12.99 28.9547 12.97C28.9347 12.9467 28.9247 12.9183 28.9247 12.885V10.52C28.9247 10.4867 28.9347 10.4583 28.9547 10.435C28.978 10.4117 29.0064 10.4 29.0397 10.4H29.2697C29.303 10.4 29.3314 10.4117 29.3547 10.435C29.378 10.4583 29.3897 10.4867 29.3897 10.52V10.74C29.4564 10.6267 29.548 10.5417 29.6647 10.485C29.7814 10.4283 29.9214 10.4 30.0847 10.4H30.2847C30.318 10.4 30.3447 10.4117 30.3647 10.435C30.3847 10.455 30.3947 10.4817 30.3947 10.515V10.72C30.3947 10.7533 30.3847 10.78 30.3647 10.8C30.3447 10.82 30.318 10.83 30.2847 10.83H29.9847C29.8047 10.83 29.663 10.8833 29.5597 10.99C29.4564 11.0933 29.4047 11.235 29.4047 11.415V12.885C29.4047 12.9183 29.393 12.9467 29.3697 12.97C29.3464 12.99 29.318 13 29.2847 13H29.0397ZM31.8391 13C31.6524 13 31.5008 12.965 31.3841 12.895C31.2674 12.8217 31.1824 12.72 31.1291 12.59C31.0758 12.4567 31.0491 12.3 31.0491 12.12V10.8H30.6591C30.6258 10.8 30.5974 10.79 30.5741 10.77C30.5541 10.7467 30.5441 10.7183 30.5441 10.685V10.515C30.5441 10.4817 30.5541 10.455 30.5741 10.435C30.5974 10.4117 30.6258 10.4 30.6591 10.4H31.0491V9.565C31.0491 9.53167 31.0591 9.505 31.0791 9.485C31.1024 9.46167 31.1308 9.45 31.1641 9.45H31.3991C31.4324 9.45 31.4591 9.46167 31.4791 9.485C31.5024 9.505 31.5141 9.53167 31.5141 9.565V10.4H32.1341C32.1674 10.4 32.1941 10.4117 32.2141 10.435C32.2374 10.455 32.2491 10.4817 32.2491 10.515V10.685C32.2491 10.7183 32.2374 10.7467 32.2141 10.77C32.1941 10.79 32.1674 10.8 32.1341 10.8H31.5141V12.085C31.5141 12.2417 31.5408 12.365 31.5941 12.455C31.6474 12.545 31.7424 12.59 31.8791 12.59H32.1841C32.2174 12.59 32.2441 12.6017 32.2641 12.625C32.2874 12.645 32.2991 12.6717 32.2991 12.705V12.885C32.2991 12.9183 32.2874 12.9467 32.2641 12.97C32.2441 12.99 32.2174 13 32.1841 13H31.8391ZM33.8622 13.795C33.6456 13.795 33.4622 13.7483 33.3122 13.655C33.1622 13.565 33.0422 13.425 32.9522 13.235C32.8622 13.045 32.7956 12.8033 32.7522 12.51C32.7122 12.2133 32.6922 11.8617 32.6922 11.455C32.6922 11.0483 32.7122 10.6983 32.7522 10.405C32.7956 10.1083 32.8622 9.865 32.9522 9.675C33.0422 9.485 33.1622 9.345 33.3122 9.255C33.4622 9.165 33.6456 9.12 33.8622 9.12C33.8922 9.12 33.9189 9.13167 33.9422 9.155C33.9656 9.17833 33.9772 9.205 33.9772 9.235V9.41C33.9772 9.44 33.9656 9.46667 33.9422 9.49C33.9222 9.51333 33.9006 9.525 33.8772 9.525C33.7372 9.52833 33.6189 9.565 33.5222 9.635C33.4289 9.70167 33.3522 9.81 33.2922 9.96C33.2356 10.11 33.1939 10.3083 33.1672 10.555C33.1439 10.7983 33.1322 11.0983 33.1322 11.455C33.1322 11.8117 33.1439 12.1133 33.1672 12.36C33.1939 12.6033 33.2356 12.8017 33.2922 12.955C33.3522 13.105 33.4289 13.2133 33.5222 13.28C33.6189 13.35 33.7372 13.3867 33.8772 13.39C33.9006 13.39 33.9222 13.4017 33.9422 13.425C33.9656 13.4483 33.9772 13.475 33.9772 13.505V13.68C33.9772 13.71 33.9656 13.7367 33.9422 13.76C33.9189 13.7833 33.8922 13.795 33.8622 13.795ZM34.21 13C34.1833 13 34.1583 12.99 34.135 12.97C34.115 12.95 34.105 12.925 34.105 12.895C34.105 12.885 34.1066 12.8733 34.11 12.86C34.1166 12.8433 34.1266 12.825 34.14 12.805L35.01 11.67L34.195 10.595C34.1816 10.575 34.1716 10.5583 34.165 10.545C34.1616 10.5317 34.16 10.5183 34.16 10.505C34.16 10.475 34.17 10.45 34.19 10.43C34.21 10.41 34.235 10.4 34.265 10.4H34.52C34.5566 10.4 34.5833 10.41 34.6 10.43C34.62 10.4467 34.6366 10.4633 34.65 10.48L35.315 11.345L35.98 10.485C35.9933 10.4683 36.0083 10.45 36.025 10.43C36.045 10.41 36.0733 10.4 36.11 10.4H36.355C36.385 10.4 36.41 10.41 36.43 10.43C36.45 10.45 36.46 10.475 36.46 10.505C36.46 10.5183 36.4566 10.5317 36.45 10.545C36.4466 10.5583 36.4383 10.575 36.425 10.595L35.6 11.68L36.47 12.805C36.4833 12.825 36.4916 12.8417 36.495 12.855C36.5016 12.8683 36.505 12.8817 36.505 12.895C36.505 12.925 36.495 12.95 36.475 12.97C36.455 12.99 36.43 13 36.4 13H36.135C36.1016 13 36.075 12.9917 36.055 12.975C36.035 12.9583 36.0183 12.9417 36.005 12.925L35.3 12.01L34.595 12.925C34.5816 12.9383 34.565 12.955 34.545 12.975C34.5283 12.9917 34.5016 13 34.465 13H34.21ZM36.7536 13.795C36.7236 13.795 36.6969 13.7833 36.6736 13.76C36.6502 13.7367 36.6386 13.71 36.6386 13.68V13.505C36.6386 13.475 36.6486 13.4483 36.6686 13.425C36.6919 13.4017 36.7169 13.39 36.7436 13.39C36.8836 13.3867 37.0002 13.35 37.0936 13.28C37.1902 13.2133 37.2669 13.105 37.3236 12.955C37.3802 12.8017 37.4219 12.6033 37.4486 12.36C37.4752 12.1133 37.4886 11.8117 37.4886 11.455C37.4886 11.0983 37.4752 10.7983 37.4486 10.555C37.4219 10.3083 37.3802 10.11 37.3236 9.96C37.2669 9.81 37.1902 9.70167 37.0936 9.635C37.0002 9.565 36.8836 9.52833 36.7436 9.525C36.7169 9.525 36.6919 9.51333 36.6686 9.49C36.6486 9.46667 36.6386 9.44 36.6386 9.41V9.235C36.6386 9.205 36.6502 9.17833 36.6736 9.155C36.6969 9.13167 36.7236 9.12 36.7536 9.12C36.9702 9.12 37.1536 9.165 37.3036 9.255C37.4536 9.345 37.5736 9.485 37.6636 9.675C37.7536 9.865 37.8186 10.1083 37.8586 10.405C37.9019 10.6983 37.9236 11.0483 37.9236 11.455C37.9236 11.8617 37.9019 12.2133 37.8586 12.51C37.8186 12.8033 37.7536 13.045 37.6636 13.235C37.5736 13.425 37.4536 13.565 37.3036 13.655C37.1536 13.7483 36.9702 13.795 36.7536 13.795Z" fill="black"/>
<path d="M13.9742 48C13.9582 48 13.9432 47.994 13.9292 47.982C13.9172 47.97 13.9112 47.955 13.9112 47.937C13.9112 47.931 13.9122 47.924 13.9142 47.916C13.9182 47.906 13.9242 47.895 13.9322 47.883L14.4542 47.202L13.9652 46.557C13.9572 46.545 13.9512 46.535 13.9472 46.527C13.9452 46.519 13.9442 46.511 13.9442 46.503C13.9442 46.485 13.9502 46.47 13.9622 46.458C13.9742 46.446 13.9892 46.44 14.0072 46.44H14.1602C14.1822 46.44 14.1982 46.446 14.2082 46.458C14.2202 46.468 14.2302 46.478 14.2382 46.488L14.6372 47.007L15.0362 46.491C15.0442 46.481 15.0532 46.47 15.0632 46.458C15.0752 46.446 15.0922 46.44 15.1142 46.44H15.2612C15.2792 46.44 15.2942 46.446 15.3062 46.458C15.3182 46.47 15.3242 46.485 15.3242 46.503C15.3242 46.511 15.3222 46.519 15.3182 46.527C15.3162 46.535 15.3112 46.545 15.3032 46.557L14.8082 47.208L15.3302 47.883C15.3382 47.895 15.3432 47.905 15.3452 47.913C15.3492 47.921 15.3512 47.929 15.3512 47.937C15.3512 47.955 15.3452 47.97 15.3332 47.982C15.3212 47.994 15.3062 48 15.2882 48H15.1292C15.1092 48 15.0932 47.995 15.0812 47.985C15.0692 47.975 15.0592 47.965 15.0512 47.955L14.6282 47.406L14.2052 47.955C14.1972 47.963 14.1872 47.973 14.1752 47.985C14.1652 47.995 14.1492 48 14.1272 48H13.9742ZM23.6803 48C23.6643 48 23.6493 47.994 23.6353 47.982C23.6233 47.97 23.6173 47.955 23.6173 47.937C23.6173 47.931 23.6183 47.924 23.6203 47.916C23.6243 47.906 23.6303 47.895 23.6383 47.883L24.1603 47.202L23.6713 46.557C23.6633 46.545 23.6573 46.535 23.6533 46.527C23.6513 46.519 23.6503 46.511 23.6503 46.503C23.6503 46.485 23.6563 46.47 23.6683 46.458C23.6803 46.446 23.6953 46.44 23.7133 46.44H23.8663C23.8883 46.44 23.9043 46.446 23.9143 46.458C23.9263 46.468 23.9363 46.478 23.9443 46.488L24.3433 47.007L24.7423 46.491C24.7503 46.481 24.7593 46.47 24.7693 46.458C24.7813 46.446 24.7983 46.44 24.8203 46.44H24.9673C24.9853 46.44 25.0003 46.446 25.0123 46.458C25.0243 46.47 25.0303 46.485 25.0303 46.503C25.0303 46.511 25.0283 46.519 25.0243 46.527C25.0223 46.535 25.0173 46.545 25.0093 46.557L24.5143 47.208L25.0363 47.883C25.0443 47.895 25.0493 47.905 25.0513 47.913C25.0553 47.921 25.0573 47.929 25.0573 47.937C25.0573 47.955 25.0513 47.97 25.0393 47.982C25.0273 47.994 25.0123 48 24.9943 48H24.8353C24.8153 48 24.7993 47.995 24.7873 47.985C24.7753 47.975 24.7653 47.965 24.7573 47.955L24.3343 47.406L23.9113 47.955C23.9033 47.963 23.8933 47.973 23.8813 47.985C23.8713 47.995 23.8553 48 23.8333 48H23.6803ZM33.3863 48C33.3703 48 33.3553 47.994 33.3413 47.982C33.3293 47.97 33.3233 47.955 33.3233 47.937C33.3233 47.931 33.3243 47.924 33.3263 47.916C33.3303 47.906 33.3363 47.895 33.3443 47.883L33.8663 47.202L33.3773 46.557C33.3693 46.545 33.3633 46.535 33.3593 46.527C33.3573 46.519 33.3563 46.511 33.3563 46.503C33.3563 46.485 33.3623 46.47 33.3743 46.458C33.3863 46.446 33.4013 46.44 33.4193 46.44H33.5723C33.5943 46.44 33.6103 46.446 33.6203 46.458C33.6323 46.468 33.6423 46.478 33.6503 46.488L34.0493 47.007L34.4483 46.491C34.4563 46.481 34.4653 46.47 34.4753 46.458C34.4873 46.446 34.5043 46.44 34.5263 46.44H34.6733C34.6913 46.44 34.7063 46.446 34.7183 46.458C34.7303 46.47 34.7363 46.485 34.7363 46.503C34.7363 46.511 34.7343 46.519 34.7303 46.527C34.7283 46.535 34.7233 46.545 34.7153 46.557L34.2203 47.208L34.7423 47.883C34.7503 47.895 34.7553 47.905 34.7573 47.913C34.7613 47.921 34.7633 47.929 34.7633 47.937C34.7633 47.955 34.7573 47.97 34.7453 47.982C34.7333 47.994 34.7183 48 34.7003 48H34.5413C34.5213 48 34.5053 47.995 34.4933 47.985C34.4813 47.975 34.4713 47.965 34.4633 47.955L34.0403 47.406L33.6173 47.955C33.6093 47.963 33.5993 47.973 33.5873 47.985C33.5773 47.995 33.5613 48 33.5393 48H33.3863ZM43.0924 48C43.0764 48 43.0614 47.994 43.0474 47.982C43.0354 47.97 43.0294 47.955 43.0294 47.937C43.0294 47.931 43.0304 47.924 43.0324 47.916C43.0364 47.906 43.0424 47.895 43.0504 47.883L43.5724 47.202L43.0834 46.557C43.0754 46.545 43.0694 46.535 43.0654 46.527C43.0634 46.519 43.0624 46.511 43.0624 46.503C43.0624 46.485 43.0684 46.47 43.0804 46.458C43.0924 46.446 43.1074 46.44 43.1254 46.44H43.2784C43.3004 46.44 43.3164 46.446 43.3264 46.458C43.3384 46.468 43.3484 46.478 43.3564 46.488L43.7554 47.007L44.1544 46.491C44.1624 46.481 44.1714 46.47 44.1814 46.458C44.1934 46.446 44.2104 46.44 44.2324 46.44H44.3794C44.3974 46.44 44.4124 46.446 44.4244 46.458C44.4364 46.47 44.4424 46.485 44.4424 46.503C44.4424 46.511 44.4404 46.519 44.4364 46.527C44.4344 46.535 44.4294 46.545 44.4214 46.557L43.9264 47.208L44.4484 47.883C44.4564 47.895 44.4614 47.905 44.4634 47.913C44.4674 47.921 44.4694 47.929 44.4694 47.937C44.4694 47.955 44.4634 47.97 44.4514 47.982C44.4394 47.994 44.4244 48 44.4064 48H44.2474C44.2274 48 44.2114 47.995 44.1994 47.985C44.1874 47.975 44.1774 47.965 44.1694 47.955L43.7464 47.406L43.3234 47.955C43.3154 47.963 43.3054 47.973 43.2934 47.985C43.2834 47.995 43.2674 48 43.2454 48H43.0924Z" fill="black"/>
<path d="M4.951 49.03C4.813 49.03 4.696 49.009 4.6 48.967C4.506 48.923 4.429 48.863 4.369 48.787C4.309 48.711 4.265 48.624 4.237 48.526C4.211 48.428 4.196 48.324 4.192 48.214C4.19 48.16 4.188 48.103 4.186 48.043C4.186 47.983 4.186 47.923 4.186 47.863C4.188 47.801 4.19 47.742 4.192 47.686C4.194 47.576 4.209 47.472 4.237 47.374C4.267 47.274 4.311 47.187 4.369 47.113C4.429 47.037 4.507 46.978 4.603 46.936C4.699 46.892 4.815 46.87 4.951 46.87C5.089 46.87 5.205 46.892 5.299 46.936C5.395 46.978 5.473 47.037 5.533 47.113C5.593 47.187 5.637 47.274 5.665 47.374C5.695 47.472 5.711 47.576 5.713 47.686C5.715 47.742 5.716 47.801 5.716 47.863C5.718 47.923 5.718 47.983 5.716 48.043C5.716 48.103 5.715 48.16 5.713 48.214C5.711 48.324 5.695 48.428 5.665 48.526C5.637 48.624 5.593 48.711 5.533 48.787C5.475 48.863 5.398 48.923 5.302 48.967C5.208 49.009 5.091 49.03 4.951 49.03ZM4.951 48.775C5.107 48.775 5.222 48.724 5.296 48.622C5.372 48.518 5.411 48.377 5.413 48.199C5.417 48.141 5.419 48.085 5.419 48.031C5.419 47.975 5.419 47.92 5.419 47.866C5.419 47.81 5.417 47.755 5.413 47.701C5.411 47.527 5.372 47.388 5.296 47.284C5.222 47.178 5.107 47.125 4.951 47.125C4.797 47.125 4.682 47.178 4.606 47.284C4.532 47.388 4.493 47.527 4.489 47.701C4.489 47.755 4.488 47.81 4.486 47.866C4.486 47.92 4.486 47.975 4.486 48.031C4.488 48.085 4.489 48.141 4.489 48.199C4.493 48.377 4.533 48.518 4.609 48.622C4.685 48.724 4.799 48.775 4.951 48.775Z" fill="black"/>
<path d="M2.495 38.57C2.479 38.57 2.465 38.564 2.453 38.552C2.441 38.54 2.435 38.526 2.435 38.51C2.435 38.502 2.436 38.494 2.438 38.486C2.44 38.478 2.444 38.468 2.45 38.456L2.681 37.907L2.108 36.554C2.098 36.53 2.093 36.513 2.093 36.503C2.093 36.485 2.099 36.47 2.111 36.458C2.123 36.446 2.138 36.44 2.156 36.44H2.303C2.323 36.44 2.339 36.445 2.351 36.455C2.363 36.465 2.371 36.477 2.375 36.491L2.831 37.583L3.299 36.491C3.305 36.477 3.313 36.465 3.323 36.455C3.335 36.445 3.352 36.44 3.374 36.44H3.515C3.533 36.44 3.548 36.446 3.56 36.458C3.572 36.47 3.578 36.484 3.578 36.5C3.578 36.51 3.573 36.528 3.563 36.554L2.711 38.519C2.705 38.533 2.696 38.545 2.684 38.555C2.674 38.565 2.658 38.57 2.636 38.57H2.495Z" fill="black"/>
<path d="M2.495 28.57C2.479 28.57 2.465 28.564 2.453 28.552C2.441 28.54 2.435 28.526 2.435 28.51C2.435 28.502 2.436 28.494 2.438 28.486C2.44 28.478 2.444 28.468 2.45 28.456L2.681 27.907L2.108 26.554C2.098 26.53 2.093 26.513 2.093 26.503C2.093 26.485 2.099 26.47 2.111 26.458C2.123 26.446 2.138 26.44 2.156 26.44H2.303C2.323 26.44 2.339 26.445 2.351 26.455C2.363 26.465 2.371 26.477 2.375 26.491L2.831 27.583L3.299 26.491C3.305 26.477 3.313 26.465 3.323 26.455C3.335 26.445 3.352 26.44 3.374 26.44H3.515C3.533 26.44 3.548 26.446 3.56 26.458C3.572 26.47 3.578 26.484 3.578 26.5C3.578 26.51 3.573 26.528 3.563 26.554L2.711 28.519C2.705 28.533 2.696 28.545 2.684 28.555C2.674 28.565 2.658 28.57 2.636 28.57H2.495Z" fill="black"/>
<path d="M2.495 17.57C2.479 17.57 2.465 17.564 2.453 17.552C2.441 17.54 2.435 17.526 2.435 17.51C2.435 17.502 2.436 17.494 2.438 17.486C2.44 17.478 2.444 17.468 2.45 17.456L2.681 16.907L2.108 15.554C2.098 15.53 2.093 15.513 2.093 15.503C2.093 15.485 2.099 15.47 2.111 15.458C2.123 15.446 2.138 15.44 2.156 15.44H2.303C2.323 15.44 2.339 15.445 2.351 15.455C2.363 15.465 2.371 15.477 2.375 15.491L2.831 16.583L3.299 15.491C3.305 15.477 3.313 15.465 3.323 15.455C3.335 15.445 3.352 15.44 3.374 15.44H3.515C3.533 15.44 3.548 15.446 3.56 15.458C3.572 15.47 3.578 15.484 3.578 15.5C3.578 15.51 3.573 15.528 3.563 15.554L2.711 17.519C2.705 17.533 2.696 17.545 2.684 17.555C2.674 17.565 2.658 17.57 2.636 17.57H2.495Z" fill="black"/>
<path d="M2.495 7.57C2.479 7.57 2.465 7.564 2.453 7.552C2.441 7.54 2.435 7.526 2.435 7.51C2.435 7.502 2.436 7.494 2.438 7.486C2.44 7.478 2.444 7.468 2.45 7.456L2.681 6.907L2.108 5.554C2.098 5.53 2.093 5.513 2.093 5.503C2.093 5.485 2.099 5.47 2.111 5.458C2.123 5.446 2.138 5.44 2.156 5.44H2.303C2.323 5.44 2.339 5.445 2.351 5.455C2.363 5.465 2.371 5.477 2.375 5.491L2.831 6.583L3.299 5.491C3.305 5.477 3.313 5.465 3.323 5.455C3.335 5.445 3.352 5.44 3.374 5.44H3.515C3.533 5.44 3.548 5.446 3.56 5.458C3.572 5.47 3.578 5.484 3.578 5.5C3.578 5.51 3.573 5.528 3.563 5.554L2.711 7.519C2.705 7.533 2.696 7.545 2.684 7.555C2.674 7.565 2.658 7.57 2.636 7.57H2.495Z" fill="black"/>
<line x1="27.5" y1="27" x2="27.5" y2="30" stroke="#1F34A1" stroke-opacity="0.6"/>
</g>
<defs>
<clipPath id="clip0_2_61">
<rect width="50" height="50" rx="8" fill="white"/>
</clipPath>
</defs>
</svg>
